HIERARCHY
ROOT Hips
{
	OFFSET 0.000000 0.000000 0.000000
	CHANNELS 6 Xposition Yposition Zposition Zrotation Yrotation Xrotation 
	JOINT LeftUpLeg_virtual
	{
		OFFSET 0.000000 0.000000 0.000000
		CHANNELS 3 Zrotation Yrotation Xrotation
		JOINT LeftUpLeg
		{
			OFFSET 10.205400 -3.823500 0.155100
			CHANNELS 3 Zrotation Yrotation Xrotation
			JOINT LeftLeg
			{
				OFFSET 0.708757 -12.982077 0.567790
				CHANNELS 3 Zrotation Yrotation Xrotation
				JOINT LeftFoot
				{
					OFFSET -0.708756 -10.717838 -2.184338
					CHANNELS 3 Zrotation Yrotation Xrotation
					JOINT LeftToeBase
					{
						OFFSET 0.108149 -7.191104 7.560241
						CHANNELS 3 Zrotation Yrotation Xrotation
						End Site
						{
							OFFSET 0.000000 0.000000 0.000000
						}
					}
				}
			}
		}
	}
	JOINT RightUpLeg_virtual
	{
		OFFSET 0.000000 0.000000 0.000000
		CHANNELS 3 Zrotation Yrotation Xrotation
		JOINT RightUpLeg
		{
			OFFSET -10.205400 -3.823500 0.005500
			CHANNELS 3 Zrotation Yrotation Xrotation
			JOINT RightLeg
			{
				OFFSET -0.708756 -12.982134 0.610632
				CHANNELS 3 Zrotation Yrotation Xrotation
				JOINT RightFoot
				{
					OFFSET 0.708754 -10.717769 -1.945823
					CHANNELS 3 Zrotation Yrotation Xrotation
					JOINT RightToeBase
					{
						OFFSET -0.108140 -7.191069 7.372968
						CHANNELS 3 Zrotation Yrotation Xrotation
						End Site
						{
							OFFSET 0.000000 0.000000 0.000000
						}
					}
				}
			}
		}
	}
	JOINT Spine_virtual
	{
		OFFSET 0.000000 0.000000 0.000000
		CHANNELS 3 Zrotation Yrotation Xrotation
		JOINT Spine
		{
			OFFSET 0.000000 6.876099 0.125700
			CHANNELS 3 Zrotation Yrotation Xrotation
			JOINT Spine1
			{
				OFFSET 0.000000 8.022060 0.146608
				CHANNELS 3 Zrotation Yrotation Xrotation
				JOINT Spine2
				{
					OFFSET 0.000000 9.168068 0.167552
					CHANNELS 3 Zrotation Yrotation Xrotation
					JOINT Neck_virtual
					{
						OFFSET 0.000000 0.000000 0.000000
						CHANNELS 3 Zrotation Yrotation Xrotation
						JOINT Neck
						{
							OFFSET 0.000000 10.314075 0.188496
							CHANNELS 3 Zrotation Yrotation Xrotation
							JOINT Head
							{
								OFFSET 0.000000 7.643700 -2.377400
								CHANNELS 3 Zrotation Yrotation Xrotation
								End Site
								{
									OFFSET 0.000000 0.000000 0.000000
								}
							}
						}
					}
					JOINT LeftShoulder_virtual
					{
						OFFSET 0.000000 0.000000 0.000000
						CHANNELS 3 Zrotation Yrotation Xrotation
						JOINT LeftShoulder
						{
							OFFSET 4.392200 8.824978 0.174984
							CHANNELS 3 Zrotation Yrotation Xrotation
							JOINT LeftArm
							{
								OFFSET 8.771219 -2.981674 -0.026999
								CHANNELS 3 Zrotation Yrotation Xrotation
								JOINT LeftForeArm
								{
									OFFSET 8.512804 0.000000 -0.000000
									CHANNELS 3 Zrotation Yrotation Xrotation
									JOINT LeftHand
									{
										OFFSET 18.484802 0.000000 -0.000000
										CHANNELS 3 Zrotation Yrotation Xrotation
										End Site
										{
											OFFSET 0.000000 0.000000 0.000000
										}
									}
								}
							}
						}
					}
					JOINT RightShoulder_virtual
					{
						OFFSET 0.000000 0.000000 0.000000
						CHANNELS 3 Zrotation Yrotation Xrotation
						JOINT RightShoulder
						{
							OFFSET -4.392200 8.824993 0.141379
							CHANNELS 3 Zrotation Yrotation Xrotation
							JOINT RightArm
							{
								OFFSET -8.771282 -2.981682 -0.094208
								CHANNELS 3 Zrotation Yrotation Xrotation
								JOINT RightForeArm
								{
									OFFSET -8.494598 0.000000 0.000000
									CHANNELS 3 Zrotation Yrotation Xrotation
									JOINT RightHand
									{
										OFFSET -18.483803 0.000000 0.000001
										CHANNELS 3 Zrotation Yrotation Xrotation
										End Site
										{
											OFFSET 0.000000 0.000000 0.000000
										}
									}
								}
							}
						}
					}
				}
			}
		}
	}
}
MOTION
Frames: 10
Frame Time: 0.033333
-51.901817 35.379681 -16.989368 -0.352493 -42.114079 -1.613393 -4.858355 -0.683983 28.262230 -25.692822 -4.116721 -33.354614 19.846344 0.832124 42.379459 -11.661861 -0.050750 11.979589 0.000000 0.000000 0.000000 3.951922 2.120031 23.454900 -4.395041 -1.030320 -54.343058 3.030170 2.039394 15.145542 3.811951 5.442357 27.758258 0.000000 0.000000 0.000000 0.169536 4.495280 17.953989 2.719996 -1.032511 -6.025025 0.405109 -2.998967 15.231979 -0.000207 -0.087081 -0.276249 0.457899 -1.374605 18.940885 7.950332 -5.687226 24.573627 0.000000 0.000000 0.000000 1.682498 -0.851493 14.760112 -3.865699 -12.613103 -0.887061 -42.749416 0.917038 6.141935 6.275569 -48.902724 5.059525 0.000000 0.000000 0.000000 -2.251891 1.026627 13.659368 19.101700 3.279468 -8.044460 58.539168 -11.701595 -19.874613 -165.000322 64.547316 -154.972812 0.000000 0.000000 0.000000 
-52.722599 35.570362 -15.698940 -0.467779 -38.742086 -1.699886 -4.393484 -0.530516 28.187528 -24.885984 -3.733382 -35.382897 18.248300 -0.868834 46.462311 -12.410899 -0.451422 13.503551 0.000000 0.000000 0.000000 3.626902 1.956932 23.317786 -4.798584 -1.066253 -53.425828 2.571445 2.979301 16.715322 3.539493 5.561406 25.910808 0.000000 0.000000 0.000000 0.332354 3.998753 18.014469 3.084160 -0.966214 -5.841836 0.305814 -2.873211 15.345985 -0.052973 -0.116550 -0.327470 0.430569 -0.971974 18.904949 7.646671 -5.373516 24.150021 0.000000 0.000000 0.000000 1.610938 -0.551865 14.667529 -4.230911 -12.564836 -0.868948 -45.181182 3.382736 7.542782 6.694897 -45.587001 5.445926 0.000000 0.000000 0.000000 -2.266474 1.221302 13.510208 18.981504 3.528303 -7.810227 59.203970 -11.342236 -19.589748 -164.630153 64.559406 -154.431328 0.000000 0.000000 0.000000 
-53.531357 35.830666 -14.453947 -0.420591 -35.918544 -1.391202 -3.932117 -0.004957 27.940487 -23.452018 -3.711388 -38.752502 16.225929 -2.326590 50.773171 -12.756409 -1.254814 14.690014 0.000000 0.000000 0.000000 2.587400 1.462319 23.765645 -6.781425 1.288161 -52.312159 3.547327 3.977881 18.858048 2.747241 4.649093 24.571974 0.000000 0.000000 0.000000 0.121263 3.625720 18.076362 3.220072 -0.748001 -5.947244 0.354314 -2.524804 14.961424 -0.027816 0.013363 0.024794 0.292672 -0.788300 18.975399 6.986005 -5.270185 23.577009 0.000000 0.000000 0.000000 1.581250 -0.317339 14.895075 -4.728012 -12.542498 -0.775471 -47.664233 5.753025 8.327084 7.380116 -42.224755 5.734738 0.000000 0.000000 0.000000 -2.296853 1.643513 13.885544 18.867341 3.775884 -7.801370 59.473476 -11.307951 -19.671667 -163.817484 64.478898 -153.497655 0.000000 0.000000 0.000000 
-54.333965 36.136074 -13.236716 -0.252689 -33.154674 -1.047570 -2.992436 -0.016830 27.723687 -21.901746 -4.494235 -42.627351 14.531986 -3.616736 54.269439 -13.527151 -2.418817 14.484661 0.000000 0.000000 0.000000 2.192187 1.004614 24.241965 -7.397822 1.677192 -51.231743 4.300466 4.841413 21.203549 2.428796 3.796754 23.395546 0.000000 0.000000 0.000000 0.042627 3.836836 17.692184 3.215711 -0.689786 -5.801761 0.354411 -2.372050 15.233303 -0.030639 -0.056154 -0.120457 0.295875 -0.581371 18.829423 6.282416 -4.956402 23.090211 0.000000 0.000000 0.000000 1.659878 -0.070186 14.834831 -5.082899 -12.551930 -0.799046 -50.199145 8.172372 8.772290 7.981791 -38.875285 5.864079 0.000000 0.000000 0.000000 -2.185742 1.857050 13.749685 18.617453 3.912333 -7.504145 59.960708 -11.486292 -20.108511 -162.836655 64.685491 -152.529749 0.000000 0.000000 0.000000 
-55.129028 36.437054 -11.975609 -0.202104 -30.739499 -0.562554 -2.689049 -0.043718 27.565045 -19.482870 -4.209087 -46.642129 13.553668 -4.270399 57.141817 -13.974372 -2.505818 11.980991 0.000000 0.000000 0.000000 2.234859 0.437347 24.870327 -7.820256 1.668708 -49.809110 4.683989 5.175397 23.695468 2.766686 3.062108 22.417244 0.000000 0.000000 0.000000 0.001814 3.841897 17.522792 3.126104 -0.645148 -5.892309 0.373602 -2.054412 15.118129 -0.061906 -0.032787 -0.054489 0.334736 -0.467141 18.683916 5.648067 -4.571113 22.546123 0.000000 0.000000 0.000000 1.734090 0.199045 14.745870 -5.328672 -12.408006 -0.918740 -52.506649 10.695810 9.042732 8.475303 -36.322072 6.200546 0.000000 0.000000 0.000000 -2.102907 1.997789 13.722723 18.344536 3.822771 -7.408700 60.330979 -12.038236 -20.953572 -162.589265 64.821603 -152.066293 0.000000 0.000000 0.000000 
-55.906055 36.710209 -10.637551 -0.174797 -28.547098 -0.275126 -2.597869 -0.324930 27.505273 -16.977335 -3.817056 -50.100298 12.567271 -4.656534 56.857725 -13.330485 -2.399582 12.572078 0.000000 0.000000 0.000000 2.348187 0.125151 25.408271 -7.311828 0.293769 -48.122709 5.116613 4.274514 25.899078 2.655016 1.753550 21.254543 0.000000 0.000000 0.000000 0.108353 3.650663 17.542506 2.973819 -0.507995 -6.005278 0.403043 -2.017274 14.958881 0.034136 0.038616 -0.072111 0.256205 -0.277683 18.604363 5.029844 -4.195309 22.265088 0.000000 0.000000 0.000000 1.696077 0.284594 14.709026 -5.450829 -12.270215 -0.908387 -54.436983 13.237941 9.453225 8.987639 -34.648505 6.500030 0.000000 0.000000 0.000000 -2.118970 2.192366 13.706848 17.986402 3.589184 -7.450877 60.598716 -12.869082 -21.845185 -162.372448 64.896523 -151.746436 0.000000 0.000000 0.000000 
-56.619476 36.936768 -9.232740 -0.011501 -26.791468 -0.083925 -2.643747 -0.555163 27.415322 -15.138105 -2.928449 -52.994820 11.809777 -4.622039 52.909715 -12.922921 -2.409523 13.144229 0.000000 0.000000 0.000000 2.682432 0.121179 26.025840 -7.590784 -1.360993 -46.066132 6.425617 3.285295 27.983302 2.254382 -0.109539 19.063879 0.000000 0.000000 0.000000 0.196988 3.503365 17.636235 2.774849 -0.459603 -6.209420 0.401577 -1.973301 14.823681 0.008864 0.030756 -0.027197 0.283271 -0.177089 18.433195 4.553256 -3.771672 22.115249 0.000000 0.000000 0.000000 1.800643 0.355010 14.628312 -5.417603 -12.019318 -0.989230 -55.938351 15.738788 9.782547 9.252144 -33.853279 6.638740 0.000000 0.000000 0.000000 -2.034789 2.209094 13.588956 17.575641 3.591048 -7.298159 60.805780 -13.515316 -22.372076 -161.957309 64.923175 -151.358973 0.000000 0.000000 0.000000 
-57.253574 37.098011 -7.760235 0.093368 -25.811859 -0.004292 -2.787864 -0.543571 27.290369 -14.111680 -1.866648 -55.241884 11.304762 -4.201615 45.632200 -12.816013 -2.449663 14.001907 0.000000 0.000000 0.000000 3.127902 0.383227 26.511401 -7.863114 -2.969717 -43.341488 6.566744 2.598571 30.108707 3.059934 -0.889269 15.113043 0.000000 0.000000 0.000000 0.309173 3.634482 17.786738 2.579124 -0.247635 -6.445208 0.416594 -1.882510 14.667946 0.031056 -0.101651 0.028212 0.335839 -0.189250 18.224656 4.316800 -3.456890 22.163272 0.000000 0.000000 0.000000 1.877573 0.413536 14.574888 -5.370672 -11.808619 -1.099806 -57.052987 18.004292 10.150055 9.395902 -33.727133 6.845798 0.000000 0.000000 0.000000 -2.011749 2.161653 13.425442 17.234306 3.508067 -7.221835 60.929467 -13.892637 -22.606951 -161.614638 64.973786 -151.049114 0.000000 0.000000 0.000000 
-57.770630 37.174713 -6.289712 0.302726 -25.245993 0.162598 -3.175420 -0.520246 26.925084 -13.886778 -0.622302 -57.081131 11.002637 -3.441912 36.484138 -13.179423 -2.565906 14.901287 0.000000 0.000000 0.000000 3.325340 0.514824 26.972934 -8.142550 -4.303857 -40.891188 6.907512 2.684396 31.094737 4.116538 -1.281377 13.231693 0.000000 0.000000 0.000000 0.205146 3.692177 17.895369 2.373804 -0.125235 -6.847394 0.393299 -1.949500 14.522398 0.041917 -0.020617 0.068873 0.349012 -0.151539 18.155915 4.281426 -3.226271 22.548644 0.000000 0.000000 0.000000 1.903643 0.427197 14.488086 -5.420340 -11.419876 -1.041581 -57.814710 19.858476 10.542653 9.492895 -34.005080 6.886124 0.000000 0.000000 0.000000 -2.017316 2.194243 13.312859 17.018419 3.609527 -7.150019 60.980025 -13.984532 -22.662870 -161.468459 65.071444 -150.963805 0.000000 0.000000 0.000000 
-58.160770 37.138218 -4.789481 0.404904 -25.192967 0.232564 -3.559855 -0.341995 26.497036 -14.286073 0.691788 -58.558313 10.878874 -2.405340 26.985237 -13.760599 -2.669119 15.869168 0.000000 0.000000 0.000000 3.377368 0.546915 27.237442 -8.192146 -6.301036 -38.595121 7.203795 3.009777 32.004532 5.019015 -1.494188 12.412007 0.000000 0.000000 0.000000 0.079482 3.880994 18.004683 2.232149 0.151950 -7.271704 0.342009 -1.917638 14.430749 0.030148 -0.000981 0.056253 0.381343 -0.236457 18.078519 4.545718 -3.118300 23.169875 0.000000 0.000000 0.000000 1.940147 0.332104 14.342014 -5.503642 -10.829239 -1.135206 -58.463257 21.412590 10.604467 9.258432 -34.524059 7.095482 0.000000 0.000000 0.000000 -1.997728 2.159852 13.252425 16.967254 3.702149 -6.975376 60.784244 -13.679519 -22.740365 -161.382070 65.196013 -150.948328 0.000000 0.000000 0.000000 
